<svg xmlns="http://www.w3.org/2000/svg" viewBox="0 0 163.75391 94.588954">
    <defs>
        <pattern id="tristarpattern" x="0" y="0" width="163.75391" height="94.588954" patternUnits="userSpaceOnUse" patternTransform="scale(0.1)">
            <path id="base-tristar1" transform="translate(-48.984362,0)" d="M24.492,56.562L0,42.422L0,14.141L24.492,0L48.984,14.141L73.477,0L97.969,14.141L97.969,42.422L73.477,56.562L73.477,84.843L48.984,98.984L24.492,84.843L24.492,56.562Z" style="fill:rgb(76,167,43);"/>
            <path id="base-tristar2" transform="translate(-48.984362,0)" d="M155.353,47.316L179.846,61.457L179.846,89.738L155.353,103.879L130.861,89.738L106.369,103.879L81.877,89.738L81.877,61.457L106.369,47.316L106.369,19.035L130.861,4.895L155.353,19.035L155.353,47.316Z" style="fill:rgb(76,167,43);"/>
            <use href="#base-tristar1" transform="translate(163.75391,0)"/>
            <use href="#base-tristar1" transform="translate(163.75391,-94.588954)"/>
            <use href="#base-tristar1" transform="translate(0,-94.588954)"/>
            <use href="#base-tristar2" transform="translate(0,-94.588954)" />
        </pattern>
    </defs>

    <rect x="0" y="0" width="163.75391" height="94.588954" fill="url(#tristarpattern)"/>
</svg>
