<?xml version="1.0" encoding="utf-8"?>
<!-- Generator: Adobe Illustrator 16.0.0, SVG Export Plug-In . SVG Version: 6.00 Build 0)  -->
<!DOCTYPE svg PUBLIC "-//W3C//DTD SVG 1.1//EN" "http://www.w3.org/Graphics/SVG/1.1/DTD/svg11.dtd">
<svg version="1.1" xmlns="http://www.w3.org/2000/svg" xmlns:xlink="http://www.w3.org/1999/xlink" x="0px" y="0px" width="730px"
	 height="320px" viewBox="0 0 730 320" enable-background="new 0 0 730 320" xml:space="preserve">
<g id="Layer_2">
	<polyline fill="none" stroke="#CCCCCC" points="42.5,22 42.5,288.5 713.5,288.5 	"/>
	<line fill="none" stroke="#CCCCCC" x1="43" y1="22" x2="36.5" y2="22"/>
	<line fill="none" stroke="#CCCCCC" x1="42.5" y1="51.333" x2="36.5" y2="51.333"/>
	<line fill="none" stroke="#CCCCCC" x1="42.5" y1="80.499" x2="36.5" y2="80.499"/>
	<line fill="none" stroke="#CCCCCC" x1="42.5" y1="109.832" x2="36.5" y2="109.832"/>
	<line fill="none" stroke="#CCCCCC" x1="42.5" y1="138.999" x2="36.5" y2="138.999"/>
	<line fill="none" stroke="#CCCCCC" x1="42.5" y1="167.999" x2="36.5" y2="167.999"/>
	<line fill="none" stroke="#CCCCCC" x1="42.5" y1="197.333" x2="36.5" y2="197.333"/>
	<line fill="none" stroke="#CCCCCC" x1="42.5" y1="226.166" x2="36.5" y2="226.166"/>
	<line fill="none" stroke="#CCCCCC" x1="42.5" y1="255.665" x2="36.5" y2="255.665"/>
	<line fill="none" stroke="#CCCCCC" x1="88.5" y1="294.5" x2="88.5" y2="288.5"/>
	<line fill="none" stroke="#CCCCCC" x1="448.5" y1="294.5" x2="448.5" y2="288.5"/>
	<line fill="none" stroke="#CCCCCC" x1="42.5" y1="288.5" x2="36.5" y2="288.5"/>
	<text transform="matrix(1 0 0 1 21.6562 292.166)" fill="#999999" font-family="'Helvetica'" font-size="11">$0</text>
	<text transform="matrix(1 0 0 1 71.833 307.5)" fill="#999999" font-family="'Helvetica'" font-size="11">March</text>
	<text transform="matrix(1 0 0 1 436.5 307.5)" fill="#999999" font-family="'Helvetica'" font-size="11">April</text>
	<text transform="matrix(1 0 0 1 15.2642 259.3145)" fill="#999999" font-family="'Helvetica'" font-size="11">$10</text>
	<text transform="matrix(1 0 0 1 15.2642 230.1299)" fill="#999999" font-family="'Helvetica'" font-size="11">$20</text>
	<text transform="matrix(1 0 0 1 15.2642 200.9443)" fill="#999999" font-family="'Helvetica'" font-size="11">$30</text>
	<text transform="matrix(1 0 0 1 15.2642 171.7598)" fill="#999999" font-family="'Helvetica'" font-size="11">$40</text>
	<text transform="matrix(1 0 0 1 15.2642 142.5742)" fill="#999999" font-family="'Helvetica'" font-size="11">$50</text>
	<text transform="matrix(1 0 0 1 15.2642 113.3896)" fill="#999999" font-family="'Helvetica'" font-size="11">$60</text>
	<text transform="matrix(1 0 0 1 15.2642 84.2046)" fill="#999999" font-family="'Helvetica'" font-size="11">$70</text>
	<text transform="matrix(1 0 0 1 15.2642 55.0195)" fill="#999999" font-family="'Helvetica'" font-size="11">$80</text>
	<text transform="matrix(1 0 0 1 15.2642 25.834)" fill="#999999" font-family="'Helvetica'" font-size="11">$90</text>
</g>
<g id="Layer_4">
	<line fill="none" stroke="#333333" x1="52.5" y1="186.667" x2="52.5" y2="145"/>
	<line fill="none" stroke="#333333" x1="64.5" y1="167.999" x2="64.5" y2="197.333"/>
	<line fill="none" stroke="#333333" x1="76.5" y1="167.999" x2="76.5" y2="197.333"/>
	<line fill="none" stroke="#333333" x1="88.5" y1="211" x2="88.5" y2="243.746"/>
	<line fill="none" stroke="#333333" x1="124.5" y1="190.25" x2="124.5" y2="245.807"/>
	<line fill="none" stroke="#333333" x1="172.5" y1="87" x2="172.5" y2="132.5"/>
	<line fill="none" stroke="#333333" x1="208.5" y1="157.25" x2="208.5" y2="192.666"/>
	<line fill="none" stroke="#333333" x1="220.5" y1="168.959" x2="220.5" y2="208.125"/>
	<line fill="none" stroke="#333333" x1="244.5" y1="201.655" x2="244.5" y2="238.167"/>
	<line fill="none" stroke="#333333" x1="280.5" y1="136.07" x2="280.5" y2="176.256"/>
	<line fill="none" stroke="#333333" x1="292.5" y1="164.052" x2="292.5" y2="204.238"/>
	<line fill="none" stroke="#333333" x1="376.5" y1="144" x2="376.5" y2="192.001"/>
	<line fill="none" stroke="#333333" x1="388.5" y1="165.166" x2="388.5" y2="195.875"/>
	<line fill="none" stroke="#333333" x1="400.5" y1="147.167" x2="400.5" y2="184.937"/>
	<line fill="none" stroke="#333333" x1="304.5" y1="145.944" x2="304.5" y2="219.911"/>
	<line fill="none" stroke="#333333" x1="328.5" y1="130.352" x2="328.5" y2="194.875"/>
	<line fill="none" stroke="#333333" x1="352.5" y1="75.75" x2="352.5" y2="125"/>
	<line fill="none" stroke="#333333" x1="340.5" y1="105.778" x2="340.5" y2="185.096"/>
	<line fill="none" stroke="#333333" x1="364.5" y1="93.75" x2="364.5" y2="184.145"/>
	<line fill="none" stroke="#333333" x1="316.5" y1="137.267" x2="316.5" y2="199.986"/>
	<line fill="none" stroke="#333333" x1="256.5" y1="201.655" x2="256.5" y2="257.5"/>
	<line fill="none" stroke="#333333" x1="268.5" y1="222.75" x2="268.5" y2="284.167"/>
	<line fill="none" stroke="#333333" x1="232.5" y1="188.542" x2="232.5" y2="224.167"/>
	<line fill="none" stroke="#333333" x1="184.5" y1="70.066" x2="184.5" y2="109.75"/>
	<line fill="none" stroke="#333333" x1="196.5" y1="84.205" x2="196.5" y2="176.499"/>
	<line fill="none" stroke="#333333" x1="148.5" y1="137.592" x2="148.5" y2="255.749"/>
	<line fill="none" stroke="#333333" x1="160.5" y1="119.671" x2="160.5" y2="196.671"/>
	<line fill="none" stroke="#333333" x1="112.5" y1="241.5" x2="112.5" y2="268"/>
	<line fill="none" stroke="#333333" x1="136.5" y1="214.88" x2="136.5" y2="245.807"/>
	<line fill="none" stroke="#333333" x1="100.5" y1="239.377" x2="100.5" y2="272.123"/>
	<line fill="none" stroke="#333333" x1="412.5" y1="166.052" x2="412.5" y2="205.667"/>
	<line fill="none" stroke="#333333" x1="424.5" y1="182.563" x2="424.5" y2="205.667"/>
	<line fill="none" stroke="#333333" x1="436.5" y1="203.167" x2="436.5" y2="166.052"/>
	<line fill="none" stroke="#333333" x1="448.5" y1="180.521" x2="448.5" y2="205.667"/>
	<line fill="none" stroke="#333333" x1="460.5" y1="158.027" x2="460.5" y2="223.5"/>
	<line fill="none" stroke="#333333" x1="472.5" y1="203.167" x2="472.5" y2="163.75"/>
	<line fill="none" stroke="#333333" x1="484.5" y1="238.833" x2="484.5" y2="176.132"/>
	<line fill="none" stroke="#333333" x1="496.5" y1="264.5" x2="496.5" y2="220.5"/>
	<line fill="none" stroke="#333333" x1="508.5" y1="254.833" x2="508.5" y2="286.833"/>
	<line fill="none" stroke="#333333" x1="520.5" y1="284.963" x2="520.5" y2="220.5"/>
	<line fill="none" stroke="#333333" x1="532.5" y1="246.166" x2="532.5" y2="220.5"/>
	<line fill="none" stroke="#333333" x1="544.5" y1="275.265" x2="544.5" y2="235.166"/>
	<line fill="none" stroke="#333333" x1="556.5" y1="281.963" x2="556.5" y2="250.117"/>
	<line fill="none" stroke="#333333" x1="568.5" y1="238.833" x2="568.5" y2="194.115"/>
	<line fill="none" stroke="#333333" x1="580.5" y1="193.094" x2="580.5" y2="231.499"/>
	<line fill="none" stroke="#333333" x1="592.5" y1="230.13" x2="592.5" y2="176.132"/>
	<line fill="none" stroke="#333333" x1="604.5" y1="194.875" x2="604.5" y2="231.499"/>
	<line fill="none" stroke="#333333" x1="616.5" y1="205.667" x2="616.5" y2="151.833"/>
	<line fill="none" stroke="#333333" x1="628.5" y1="156.25" x2="628.5" y2="114.39"/>
	<line fill="none" stroke="#333333" x1="640.5" y1="120.166" x2="640.5" y2="155.25"/>
	<line fill="none" stroke="#333333" x1="652.5" y1="131.253" x2="652.5" y2="199.576"/>
	<line fill="none" stroke="#333333" x1="664.5" y1="113.39" x2="664.5" y2="88.498"/>
	<line fill="none" stroke="#333333" x1="676.5" y1="64.165" x2="676.5" y2="128.043"/>
	<line fill="none" stroke="#333333" x1="688.5" y1="48.832" x2="688.5" y2="92.165"/>
	<line fill="none" stroke="#333333" x1="700.5" y1="32.832" x2="700.5" y2="73.832"/>
	<line fill="none" stroke="#333333" x1="712.5" y1="55.02" x2="712.5" y2="108.498"/>
</g>
<g id="Layer_1">
	<rect x="49" y="153.332" fill="#ED454A" width="7" height="29.334"/>
	<rect x="61" y="170.332" fill="#8CC63F" width="7" height="12.334"/>
	<rect x="73" y="174.25" fill="#ED454A" width="7" height="51.916"/>
	<rect x="193" y="90.5" fill="#ED454A" width="7" height="79.832"/>
	<rect x="97" y="227.373" fill="#ED454A" width="7" height="39.127"/>
	<rect x="109" y="248.5" fill="#8CC63F" width="7" height="14.5"/>
	<rect x="121" y="224.617" fill="#8CC63F" width="7" height="9.633"/>
	<rect x="133" y="217.75" fill="#ED454A" width="7" height="14.439"/>
	<rect x="217" y="174.25" fill="#ED454A" width="7" height="22"/>
	<rect x="277" y="149" fill="#ED454A" width="7" height="22"/>
	<rect x="325" y="145.25" fill="#ED454A" width="7" height="7.583"/>
	<rect x="385" y="169.458" fill="#ED454A" width="7" height="7.583"/>
	<rect x="409" y="168.416" fill="#ED454A" width="7" height="26.459"/>
	<rect x="433" y="184.145" fill="#ED454A" width="7" height="9.355"/>
	<rect x="457" y="186.652" fill="#ED454A" width="7" height="8.223"/>
	<rect x="553" y="269.697" fill="#ED454A" width="7" height="8.223"/>
	<rect x="637" y="124.833" fill="#ED454A" width="7" height="6.42"/>
	<rect x="709" y="62.728" fill="#ED454A" width="7" height="16.771"/>
	<rect x="529" y="226.858" fill="#ED454A" width="7" height="11.975"/>
	<rect x="481" y="201.655" fill="#ED454A" width="7" height="25.284"/>
	<rect x="493" y="227.548" fill="#ED454A" width="7" height="31.767"/>
	<rect x="541" y="243.432" fill="#ED454A" width="7" height="28.068"/>
	<rect x="589" y="200.263" fill="#ED454A" width="7" height="26.596"/>
	<rect x="649" y="135.404" fill="#ED454A" width="7" height="60.471"/>
	<rect x="601" y="197.931" fill="#8CC63F" width="7" height="26.596"/>
	<rect x="613" y="160" fill="#8CC63F" width="7" height="39.95"/>
	<rect x="625" y="121.5" fill="#8CC63F" width="7" height="32"/>
	<rect x="661" y="96.5" fill="#8CC63F" width="7" height="57"/>
	<rect x="673" y="71.043" fill="#8CC63F" width="7" height="31.79"/>
	<rect x="697" y="39.167" fill="#8CC63F" width="7" height="31.876"/>
	<rect x="685" y="60.833" fill="#8CC63F" width="7" height="10.21"/>
	<rect x="505" y="257.433" fill="#ED454A" width="7" height="24.53"/>
	<rect x="517" y="224.97" fill="#8CC63F" width="7" height="50.295"/>
	<rect x="565" y="199.986" fill="#8CC63F" width="7" height="32.859"/>
	<rect x="577" y="195.986" fill="#8CC63F" width="7" height="7.181"/>
	<rect x="469" y="195.875" fill="#ED454A" width="7" height="4.111"/>
	<rect x="349" y="105.778" fill="#ED454A" width="7" height="10.722"/>
	<rect x="361" y="111.139" fill="#ED454A" width="7" height="69.611"/>
	<rect x="337" y="113.39" fill="#8CC63F" width="7" height="45.36"/>
	<rect x="289" y="168" fill="#ED454A" width="7" height="25.5"/>
	<rect x="313" y="142.574" fill="#8CC63F" width="7" height="45.593"/>
	<rect x="301" y="191.5" fill="#ED454A" width="7" height="1.166"/>
	<rect x="373" y="168.416" fill="#8CC63F" width="7" height="1.166"/>
	<rect x="397" y="176.132" fill="#8CC63F" width="7" height="2.263"/>
	<rect x="421" y="184.145" fill="#8CC63F" width="7" height="7.186"/>
	<rect x="445" y="182.563" fill="#8CC63F" width="7" height="9.852"/>
	<rect x="229" y="193.5" fill="#ED454A" width="7" height="29.25"/>
	<rect x="241" y="208.125" fill="#8CC63F" width="7" height="19.248"/>
	<rect x="253" y="208.125" fill="#ED454A" width="7" height="16.845"/>
	<rect x="265" y="232.189" fill="#ED454A" width="7" height="30.811"/>
	<rect x="145" y="164.5" fill="#8CC63F" width="7" height="71.75"/>
	<rect x="157" y="124.833" fill="#8CC63F" width="7" height="46.926"/>
	<rect x="169" y="98.167" fill="#8CC63F" width="7" height="15.223"/>
	<rect x="181" y="92.816" fill="#8CC63F" width="7" height="3.299"/>
	<rect x="85" y="224.617" fill="#ED454A" width="7" height="5.513"/>
	<rect x="205" y="168.999" fill="#ED454A" width="7" height="2.667"/>
</g>
</svg>
