<?xml version="1.0" encoding="UTF-8" standalone="no"?>
<!DOCTYPE svg PUBLIC "-//W3C//DTD SVG 1.1//EN" "http://www.w3.org/Graphics/SVG/1.1/DTD/svg11.dtd">
<svg width="100%" height="100%" viewBox="0 0 675 675" version="1.1" xmlns="http://www.w3.org/2000/svg" xmlns:xlink="http://www.w3.org/1999/xlink" xml:space="preserve" style="fill-rule:evenodd;clip-rule:evenodd;stroke-linejoin:round;stroke-miterlimit:2;">
    <metadata>
      <rdf:RDF xmlns:rdf="http://www.w3.org/1999/02/22-rdf-syntax-ns#"
               xmlns:rdfs="http://www.w3.org/2000/01/rdf-schema#"
               xmlns:dc="http://purl.org/dc/elements/1.1/">
        <rdf:Description about="https://github.com/cusyio/cusy-design-system/blob/main/docs/accessibility/assistance-inv.svg">
          <dc:title>Limited accessibility</dc:title>
          <dc:creator>Veit Schiele, Berlin</dc:creator>
          <dc:publisher>cusy GmbH</dc:publisher>
          <dc:subject>Accessibility</dc:subject>
          <dc:description>Limited accessibility.</dc:description>
          <dc:identifier>https://github.com/cusyio/cusy-design-system/blob/main/docs/accessibility/assistance-inv.svg</dc:identifier>
          <dc:relation>https://cusy-design-system.readthedocs.io/de/latest/accessibility/events.html</dc:relation>
          <dc:source>https://github.com/cusyio/cusy-design-system/blob/main/docs/accessibility/assistance-inv.svg</dc:source>
          <dc:rights>Copyright 2021 cusy GmbH</dc:rights>
          <dc:format>image/svg+xml</dc:format>
          <dc:type>Image</dc:type>
          <dc:date>2021-07-13</dc:date>
          <dc:language>en</dc:language>
        </rdf:Description>
      </rdf:RDF>
    </metadata>
    <g transform="matrix(4.16667,0,0,4.16667,0,0)">
        <path d="M81,2.984C124.058,2.984 159.016,37.942 159.016,81C159.016,124.058 124.058,159.016 81,159.016C37.942,159.016 2.984,124.058 2.984,81C2.984,37.942 37.942,2.984 81,2.984Z" style="fill:rgb(132,14,255);"/>
        <path d="M80.973,1.046C97.707,1.086 114.423,6.497 127.979,16.384C145.95,29.49 158.118,50.209 160.472,72.681C162.629,93.274 156.536,114.58 143.533,130.924C131.775,145.703 114.712,156.099 96.24,159.698C76.582,163.527 55.506,159.692 38.5,149.077C21.963,138.753 9.407,122.265 3.952,103.502C-2.525,81.219 1.209,56.204 14.187,36.742C25.826,19.289 44.527,6.637 65.326,2.55C70.482,1.537 75.75,1.042 80.973,1.046ZM80.733,12.91C66.381,12.944 52.09,17.61 40.535,26.09C27.144,35.919 17.511,50.731 14.092,67.049C10.732,83.087 13.329,100.34 21.47,114.698C31.152,131.774 48.445,144.298 67.718,148.053C84.472,151.318 102.424,148.053 116.906,139.013C133.696,128.531 145.602,110.544 148.385,90.658C150.664,74.376 146.888,57.295 137.745,43.496C126.325,26.259 106.874,14.624 85.881,13.093C84.169,12.968 82.454,12.909 80.733,12.91Z" style="fill:white;"/>
        <path d="M60.886,115.18C58.618,116.834 55.805,117.814 52.757,117.814C45.243,117.814 39.152,111.861 39.152,104.516C39.152,101.515 40.17,98.748 41.885,96.522L36.652,91.384C33.392,95.032 31.416,99.804 31.416,105.027C31.416,116.486 40.92,125.775 52.643,125.776C57.953,125.776 62.807,123.87 66.529,120.72L60.886,115.18Z" style="fill:white;fill-rule:nonzero;"/>
        <path d="M65.365,92.158L82.704,91.223M80.454,113.004L82.805,91.668M48.275,84.72L49.793,72.508L43.018,72.996L40.729,82.031C40.174,84.227 37.901,85.565 35.655,85.022C33.408,84.478 32.038,82.258 32.595,80.062L35.614,68.145C36.049,66.426 37.566,65.175 39.373,65.045C39.373,65.045 61.504,63.455 61.542,63.455C62.708,63.408 63.788,63.834 64.581,64.564C65.824,65.574 66.535,67.157 66.326,68.842L64.868,80.576C64.741,80.958 64.272,85.187 63.91,87.441C64.21,87.625 64.504,87.816 64.794,88.013C64.908,87.994 65.024,87.981 65.14,87.972L82.478,87.037C82.478,87.037 82.634,87.031 82.816,87.032C84.649,87.118 86.227,88.511 86.72,90.224C86.907,90.706 87.007,91.223 86.996,91.752C86.993,91.919 86.986,91.961 86.972,92.127L84.621,113.463C84.336,115.61 82.33,117.327 80.182,117.187C77.941,117.042 76.085,114.859 76.287,112.545L78.147,95.667L71.766,96.011C73.114,98.738 73.87,101.797 73.87,105.028C73.87,110.149 71.97,114.837 68.824,118.455L63.249,112.982C65.193,110.682 66.362,107.732 66.362,104.516C66.362,97.172 60.271,91.218 52.757,91.218C49.488,91.218 46.49,92.346 44.144,94.223L38.979,89.151C41.61,86.986 44.785,85.434 48.275,84.72Z" style="fill:white;fill-rule:nonzero;"/>
        <path d="M103.543,39.665C103.543,43.936 107.006,47.399 111.279,47.399C115.548,47.399 119.009,43.936 119.009,39.665C119.009,35.393 115.547,31.93 111.279,31.93C107.006,31.93 103.543,35.393 103.543,39.665Z" style="fill:white;fill-rule:nonzero;"/>
        <path d="M121.423,49.192L122.431,49.192C122.772,49.194 123.109,49.219 123.421,49.271C127.168,49.762 130.044,52.965 130.044,56.846L130.044,83.209C130.044,85.055 128.578,86.548 126.732,86.548C125.033,86.548 123.62,85.247 123.44,83.571C123.44,83.571 123.383,60.585 123.38,60.515C123.345,59.74 123.049,59.379 122.431,59.465L121.471,59.397L121.423,122.197C121.019,124.223 119.229,125.751 117.082,125.751C114.667,125.751 112.684,123.769 112.683,121.327L112.658,121.327L112.698,97.615L112.698,85.095L112.692,85.095C112.68,84.796 112.555,84.508 112.34,84.321C112.192,84.192 112.01,84.109 111.817,84.082C111.626,84.054 111.434,84.108 111.247,84.164C111.166,84.216 111.076,84.257 111.003,84.321C110.855,84.45 110.747,84.618 110.692,84.806C110.665,84.896 110.664,84.992 110.651,85.084L110.651,85.531L110.743,121.026C110.771,121.136 110.771,121.218 110.771,121.327C110.771,123.769 108.789,125.751 106.344,125.751C103.929,125.751 101.945,123.769 101.945,121.327L101.92,121.327L101.92,97.615L101.959,97.615L101.959,85.474L101.92,85.474L101.92,60.117L101.294,60.117L96.289,74.203C95.281,77.032 94.273,79.861 93.264,82.689C93.194,82.847 93.135,83.01 93.053,83.161C92.193,84.737 90.088,85.296 88.583,84.475C87.365,83.81 86.669,82.333 86.923,80.976C87.012,80.503 87.415,79.474 87.504,79.226C90.808,69.955 94.113,60.685 97.417,51.415C97.488,51.257 97.546,51.094 97.628,50.943C97.959,50.336 98.484,49.841 99.108,49.544C99.525,49.346 99.649,49.348 100.097,49.254C100.233,49.247 100.37,49.24 100.506,49.233L100.506,49.192L121.424,49.192L121.423,49.192Z" style="fill:white;"/>
        <g transform="matrix(1,0,0,1,-51.6,14.64)">
            <path d="M103.543,39.665C103.543,43.936 107.006,47.399 111.279,47.399C115.548,47.399 119.009,43.936 119.009,39.665C119.009,35.393 115.547,31.93 111.279,31.93C107.006,31.93 103.543,35.393 103.543,39.665Z" style="fill:white;fill-rule:nonzero;"/>
        </g>
    </g>
</svg>
