<?xml version="1.0" encoding="UTF-8" standalone="no"?>
<!DOCTYPE svg PUBLIC "-//W3C//DTD SVG 1.1//EN" "http://www.w3.org/Graphics/SVG/1.1/DTD/svg11.dtd">
<svg width="100%" height="100%" viewBox="0 0 675 675" version="1.1" xmlns="http://www.w3.org/2000/svg" xmlns:xlink="http://www.w3.org/1999/xlink" xml:space="preserve" style="fill-rule:evenodd;clip-rule:evenodd;stroke-linejoin:round;stroke-miterlimit:2;">
    <metadata>
      <rdf:RDF xmlns:rdf="http://www.w3.org/1999/02/22-rdf-syntax-ns#"
               xmlns:rdfs="http://www.w3.org/2000/01/rdf-schema#"
               xmlns:dc="http://purl.org/dc/elements/1.1/">
        <rdf:Description about="https://github.com/cusyio/cusy-design-system/blob/main/docs/accessibility/audio-inv.svg">
          <dc:title>Audio induction loop</dc:title>
          <dc:creator>Veit Schiele, Berlin</dc:creator>
          <dc:publisher>Cusy GmbH</dc:publisher>
          <dc:subject>Audio induction loop</dc:subject>
          <dc:description>Accessible for hearing impaired and deaf people.</dc:description>
          <dc:identifier>https://github.com/cusyio/cusy-design-system/blob/main/docs/accessibility/audio-inv.svg</dc:identifier>
          <dc:relation>https://cusy-design-system.readthedocs.io/de/latest/accessibility/events.html</dc:relation>
          <dc:source>https://github.com/cusyio/cusy-design-system/blob/main/docs/accessibility/audio-inv.svg</dc:source>
          <dc:rights>Copyright 2021 Cusy GmbH</dc:rights>
          <dc:format>image/svg+xml</dc:format>
          <dc:type>Image</dc:type>
          <dc:date>2021-07-13</dc:date>
          <dc:language>en</dc:language>
        </rdf:Description>
      </rdf:RDF>
    </metadata>
    <g transform="matrix(4.16667,0,0,4.16667,0,0)">
        <path d="M80.873,5.047C123.164,5.047 157.499,39.383 157.499,81.674C157.499,123.965 123.164,158.3 80.873,158.3C38.581,158.3 4.246,123.965 4.246,81.674C4.246,39.383 38.581,5.047 80.873,5.047Z" style="fill:rgb(132,14,255);"/>
        <path d="M80.973,1.623C97.707,1.663 114.423,7.074 127.979,16.961C148.241,31.739 160.992,56.254 160.911,81.948C160.84,104.019 151.248,125.806 134.858,140.792C124.141,150.592 110.708,157.409 96.485,160.227C76.745,164.136 55.579,160.315 38.5,149.654C21.963,139.33 9.407,122.842 3.952,104.079C-2.535,81.762 1.209,56.781 14.187,37.319C25.846,19.836 44.527,7.214 65.326,3.127C70.482,2.114 75.75,1.619 80.973,1.623ZM80.733,13.487C66.441,13.521 52.21,18.152 40.701,26.546C23.487,39.101 12.642,59.774 12.642,81.689C12.642,100.533 20.789,119.192 34.837,132.037C47.195,143.337 63.83,149.837 80.623,149.891C97.403,149.944 114.082,143.576 126.549,132.312C140.629,119.592 149.047,100.918 149.047,81.689C149.047,65.066 142.734,48.528 131.605,36.137C118.995,22.096 100.452,13.625 81.286,13.488C81.102,13.487 80.918,13.487 80.733,13.487Z" style="fill:white;fill-rule:nonzero;"/>
        <path d="M106.092,47.132C98.982,40.97 89.502,38.125 80.022,39.073C66.969,41.179 56.161,50.765 52.58,62.847C52.289,63.994 52.509,65.209 53.182,66.181C53.856,67.153 54.908,67.88 56.084,68.009C56.074,68.103 56.084,68.009 56.084,68.009C56.084,68.009 56.085,68.009 56.089,68.01C58.862,68.524 61.582,66.89 62.432,64.201C65.234,55.984 72.668,49.75 81.444,48.553C88.554,47.605 95.19,49.502 100.404,54.241C105.144,58.981 107.988,65.618 107.988,72.254C107.988,79.364 105.144,86 99.456,90.265C93.768,95.005 89.976,102.116 88.554,109.7C88.08,112.544 86.658,114.914 84.288,116.809C81.918,118.706 78.952,119.82 76.23,119.654C74.475,119.546 72.879,118.895 71.468,118.125C69.222,116.842 66.291,116.916 64.284,118.547C64.157,118.391 64.284,118.547 64.284,118.547C63.272,119.367 62.695,120.608 62.718,121.91C62.741,123.212 63.363,124.431 64.403,125.215C67.468,127.375 70.916,128.809 74.808,129.134L76.704,129.134C81.444,129.134 86.184,127.237 90.45,124.394C94.242,121.076 97.086,116.809 98.034,111.596C98.982,105.908 101.826,100.693 105.618,97.375C113.202,91.213 117.468,82.207 117.468,72.254C117.468,62.773 113.202,53.768 106.092,47.132Z" style="fill:white;fill-rule:nonzero;"/>
        <path d="M65.631,91.07C68.143,91.218 70.306,93.425 70.273,95.945C70.256,97.188 69.714,98.399 68.857,99.293L43.662,124.401C41.886,126.092 38.893,126.19 37.092,124.614C35.177,122.938 34.917,119.697 36.712,117.738C36.762,117.684 36.814,117.632 36.864,117.579L62.059,92.471C62.859,91.71 63.878,91.202 64.974,91.091C65.397,91.049 65.496,91.068 65.631,91.07Z" style="fill:white;fill-rule:nonzero;"/>
        <path d="M77.805,95.361C77.805,98.389 79.612,99.93 82.109,99.93C84.606,99.93 86.412,98.389 86.412,95.361L86.412,69.751L91.247,69.751C94.116,69.751 95.71,68.158 95.71,65.767C95.71,63.269 94.116,61.782 91.247,61.782L72.97,61.782C70.101,61.782 68.507,63.269 68.507,65.767C68.507,68.158 70.101,69.751 72.97,69.751L77.805,69.751L77.805,95.361Z" style="fill:white;fill-rule:nonzero;"/>
        <path d="M124.377,36.725C122.528,34.875 119.333,35.072 117.242,37.163C115.948,38.457 114.502,39.903 113.208,41.197C111.117,43.288 110.92,46.483 112.769,48.332C112.772,48.334 112.774,48.337 112.776,48.339C114.625,50.188 117.82,49.992 119.911,47.901C121.205,46.607 122.651,45.16 123.945,43.867C126.037,41.775 126.233,38.581 124.384,36.731C124.381,36.729 124.379,36.727 124.377,36.725Z" style="fill:white;"/>
    </g>
</svg>
