<?xml version="1.0" encoding="UTF-8" standalone="no"?>
<!DOCTYPE svg PUBLIC "-//W3C//DTD SVG 1.1//EN" "http://www.w3.org/Graphics/SVG/1.1/DTD/svg11.dtd">
<svg width="100%" height="100%" viewBox="0 0 675 675" version="1.1" xmlns="http://www.w3.org/2000/svg" xmlns:xlink="http://www.w3.org/1999/xlink" xml:space="preserve" style="fill-rule:evenodd;clip-rule:evenodd;stroke-linejoin:round;stroke-miterlimit:2;">
    <metadata>
      <rdf:RDF xmlns:rdf="http://www.w3.org/1999/02/22-rdf-syntax-ns#"
               xmlns:rdfs="http://www.w3.org/2000/01/rdf-schema#"
               xmlns:dc="http://purl.org/dc/elements/1.1/">
        <rdf:Description about="https://github.com/cusyio/cusy-design-system/blob/main/docs/accessibility/sign-language-inv.svg">
          <dc:title>Sign language</dc:title>
          <dc:creator>Veit Schiele, Berlin</dc:creator>
          <dc:publisher>Cusy GmbH</dc:publisher>
          <dc:subject>Accessibility, Sign language</dc:subject>
          <dc:description>Sign language.</dc:description>
          <dc:identifier>https://github.com/cusyio/cusy-design-system/blob/main/docs/accessibility/sign-language-inv.svg</dc:identifier>
          <dc:relation>https://cusy-design-system.readthedocs.io/de/latest/accessibility/events.html</dc:relation>
          <dc:source>https://github.com/cusyio/cusy-design-system/blob/main/docs/accessibility/sign-language-inv.svg</dc:source>
          <dc:rights>Copyright 2021 Cusy GmbH</dc:rights>
          <dc:format>image/svg+xml</dc:format>
          <dc:type>Image</dc:type>
          <dc:date>2021-07-13</dc:date>
          <dc:language>en</dc:language>
        </rdf:Description>
      </rdf:RDF>
    </metadata>
    <g transform="matrix(4.16667,0,0,4.16667,0,0)">
        <path d="M80.869,4.19C123.261,4.19 157.679,38.607 157.679,81C157.679,123.393 123.261,157.81 80.869,157.81C38.476,157.81 4.058,123.393 4.058,81C4.058,38.607 38.476,4.19 80.869,4.19Z" style="fill:rgb(132,14,255);"/>
        <path d="M80.973,1.029C97.705,1.069 114.423,6.48 127.979,16.367C145.969,29.487 158.118,50.192 160.472,72.664C162.629,93.257 156.536,114.563 143.533,130.907C131.837,145.608 114.815,156.031 96.362,159.657C76.564,163.546 55.342,159.644 38.296,148.932C21.835,138.587 9.373,122.131 3.952,103.485C-2.524,81.202 1.209,56.187 14.187,36.725C25.824,19.275 44.544,6.616 65.326,2.533C70.482,1.52 75.749,1.025 80.973,1.029ZM80.733,12.893C66.382,12.927 52.09,17.593 40.535,26.073C27.142,35.903 17.508,50.732 14.092,67.032C10.731,83.072 13.339,100.34 21.47,114.681C29.002,127.965 41.106,138.605 55.258,144.337C71.404,150.876 90.059,150.91 106.238,144.415C125.375,136.732 140.726,119.961 146.46,99.769C151.784,81.026 148.682,59.987 137.745,43.479C125.493,24.986 104.033,13.056 81.286,12.894C81.102,12.893 80.918,12.893 80.733,12.893Z" style="fill:white;fill-rule:nonzero;"/>
        <path d="M74.337,81.265C72.425,81.048 70.669,81.783 70.452,83.694C70.196,85.944 68.62,91.143 59.549,90.821C53.665,90.612 49.049,85.655 49.258,79.772C49.467,73.889 54.423,69.272 60.306,69.482C68.677,69.779 70.367,74.287 70.629,76.947C70.817,78.861 72.509,79.75 74.427,79.562C76.342,79.373 77.752,78.179 77.563,76.264C76.812,68.628 71.02,63.521 62.295,62.638C62.208,62.63 62.141,62.559 62.137,62.471C62.134,62.383 62.196,62.307 62.282,62.292C62.282,62.291 62.283,62.291 62.283,62.291C68.564,61.219 72.569,63.487 72.786,63.614C74.42,64.601 76.549,64.09 77.553,62.461C78.563,60.823 78.054,58.676 76.417,57.666C76.164,57.511 70.142,53.881 61.109,55.424C60.204,55.579 59.291,55.813 58.379,56.118C58.305,56.143 58.224,56.106 58.194,56.034C58.164,55.961 58.194,55.878 58.265,55.842C58.265,55.841 58.266,55.841 58.267,55.84C64.27,52.823 70.407,52.111 70.529,52.097C72.439,51.892 73.823,50.177 73.621,48.266C73.417,46.352 71.701,44.967 69.788,45.169C69.493,45.2 62.469,45.978 55.328,49.521C51.877,51.232 48.979,53.291 46.656,55.664C46.591,55.732 46.485,55.74 46.41,55.683C46.336,55.625 46.317,55.52 46.367,55.441C50.603,48.797 57.334,46.206 57.814,46.029C59.617,45.373 60.551,43.38 59.9,41.573C59.247,39.763 57.249,38.825 55.44,39.477C55.198,39.564 49.441,41.679 44.272,46.958C40.914,50.387 37.354,55.636 36.299,63.027C35.112,67.734 31.95,76.91 29.913,79.954C28.269,82.411 25.2,84.749 22.857,86.31C20.876,87.619 19.956,90.05 20.573,92.343C21.754,96.7 24.399,103.433 29.951,106.979C32.165,108.397 35.073,108.054 36.897,106.161C39.66,103.305 44.379,99.311 48.808,99.804C55.625,100.563 62.088,99.695 68.671,96.181C68.683,96.174 68.694,96.169 68.706,96.161C73.576,94.031 76.755,89.927 77.374,84.482C77.592,82.571 76.249,81.483 74.337,81.265Z" style="fill:white;fill-rule:nonzero;"/>
        <path d="M129.052,51C126.59,49.568 123.443,50.243 121.786,52.561C119.543,55.695 115.755,59.827 111.48,59.654C104.627,59.378 97.055,60.283 90.736,64.251C90.723,64.258 90.714,64.265 90.701,64.273C85.994,66.741 83.112,71.058 82.877,76.534C82.795,78.457 84.162,79.479 86.084,79.562C88.007,79.644 89.756,78.755 89.838,76.833C89.936,74.57 91.14,69.274 100.213,68.957C106.096,68.751 111.05,73.371 111.255,79.254C111.462,85.137 106.842,90.091 100.959,90.297C92.588,90.589 90.585,86.213 90.137,83.576C89.815,81.68 88.026,80.943 86.124,81.265C84.228,81.589 82.945,82.848 83.268,84.745C84.556,92.31 90.692,96.996 99.456,97.262C99.544,97.265 99.616,97.331 99.625,97.418C99.635,97.505 99.578,97.586 99.493,97.607C93.305,99.12 89.149,97.139 88.924,97.028C87.224,96.157 85.137,96.818 84.25,98.514C83.358,100.218 84.016,102.324 85.721,103.216C85.984,103.353 92.247,106.551 101.149,104.374C102.04,104.156 102.934,103.858 103.821,103.491C103.893,103.461 103.977,103.491 104.012,103.562C104.048,103.632 104.022,103.717 103.955,103.757L103.955,103.759C98.18,107.192 92.108,108.335 91.988,108.356C90.096,108.697 88.836,110.504 89.173,112.396C89.51,114.29 91.32,115.552 93.214,115.216C93.507,115.163 100.458,113.894 107.333,109.857C110.654,107.907 113.4,105.647 115.55,103.116C115.61,103.044 115.715,103.027 115.793,103.08C115.872,103.132 115.898,103.235 115.854,103.319C112.096,110.246 105.564,113.305 105.098,113.515C103.345,114.296 102.554,116.35 103.331,118.106C104.109,119.866 106.167,120.66 107.926,119.883C108.163,119.778 113.756,117.264 118.54,111.635C121.649,107.978 124.83,102.49 125.362,95.044C126.215,90.265 128.552,80.467 130.37,77.286C131.797,74.79 134.709,72.435 137.029,70.828C139.111,69.395 139.952,66.73 139.069,64.362C137.524,60.212 134.458,54.146 129.053,51L129.052,51Z" style="fill:white;fill-rule:nonzero;"/>
    </g>
</svg>
