<?xml version="1.0" encoding="UTF-8" standalone="no"?>
<!DOCTYPE svg PUBLIC "-//W3C//DTD SVG 1.1//EN" "http://www.w3.org/Graphics/SVG/1.1/DTD/svg11.dtd">
<svg width="100%" height="100%" viewBox="0 0 1292 675" version="1.1" xmlns="http://www.w3.org/2000/svg" xmlns:xlink="http://www.w3.org/1999/xlink" xml:space="preserve" style="fill-rule:evenodd;clip-rule:evenodd;stroke-linejoin:round;stroke-miterlimit:2;">
    <metadata>
      <rdf:RDF xmlns:rdf="http://www.w3.org/1999/02/22-rdf-syntax-ns#"
               xmlns:rdfs="http://www.w3.org/2000/01/rdf-schema#"
               xmlns:dc="http://purl.org/dc/elements/1.1/">
        <rdf:Description about="https://github.com/cusyio/cusy-design-system/blob/main/docs/accessibility/toilet.svg">
          <dc:title>Toilet usable with wheelchair</dc:title>
          <dc:creator>Veit Schiele, Berlin</dc:creator>
          <dc:publisher>Cusy GmbH</dc:publisher>
          <dc:subject>Accessibility, Toilet, Wheelchair</dc:subject>
          <dc:description>Toilet usable with wheelchair.</dc:description>
          <dc:identifier>https://github.com/cusyio/cusy-design-system/blob/main/docs/accessibility/toilet.svg</dc:identifier>
          <dc:relation>https://cusy-design-system.readthedocs.io/de/latest/accessibility/events.html</dc:relation>
          <dc:source>https://github.com/cusyio/cusy-design-system/blob/main/docs/accessibility/toilet.svg</dc:source>
          <dc:rights>Copyright 2021 Cusy GmbH</dc:rights>
          <dc:format>image/svg+xml</dc:format>
          <dc:type>Image</dc:type>
          <dc:date>2021-07-13</dc:date>
          <dc:language>en</dc:language>
        </rdf:Description>
      </rdf:RDF>
    </metadata>
    <g transform="matrix(4.16667,0,0,4.16667,616.667,0)">
        <path d="M80.929,4.624C123.082,4.624 157.306,38.847 157.306,81C157.306,123.153 123.082,157.376 80.929,157.376C38.776,157.376 4.553,123.153 4.553,81C4.553,38.847 38.776,4.624 80.929,4.624Z" style="fill:white;"/>
        <g transform="matrix(1,0,0,1,-148.458,0)">
            <path d="M80.929,4.624C123.082,4.624 157.306,38.847 157.306,81C157.306,123.153 123.082,157.376 80.929,157.376C38.776,157.376 4.553,123.153 4.553,81C4.553,38.847 38.776,4.624 80.929,4.624Z" style="fill:white;"/>
        </g>
        <path d="M80.902,1.083C97.634,1.123 114.352,6.534 127.908,16.421C145.898,29.542 158.047,50.246 160.401,72.718C162.558,93.311 156.465,114.617 143.462,130.961C131.753,145.679 114.777,156.049 96.414,159.687C76.674,163.596 55.508,159.775 38.429,149.114C21.892,138.79 9.336,122.302 3.882,103.539C-2.6,81.241 1.138,56.241 14.116,36.779C25.773,19.299 44.474,6.67 65.255,2.587C70.412,1.574 75.679,1.079 80.902,1.083ZM80.663,12.947C66.37,12.981 52.139,17.612 40.63,26.006C27.19,35.809 17.507,50.579 14.043,66.982C9.913,86.542 14.821,107.802 27.369,123.574C37.303,136.061 51.756,144.943 67.438,148.049C84.25,151.379 102.292,148.128 116.835,139.05C133.629,128.565 145.531,110.581 148.314,90.695C150.593,74.413 146.817,57.332 137.674,43.533C125.422,25.04 103.962,13.11 81.215,12.948C81.031,12.947 80.847,12.947 80.663,12.947Z" style="fill:rgb(132,14,255);fill-rule:nonzero;"/>
        <g>
            <path d="M116.427,76.99C115.169,75.7 113.412,75.018 111.617,75.117L89.884,76.326L101.844,62.705C103.548,60.765 104.034,58.178 103.376,55.867C103.028,54.283 102.069,52.842 100.596,51.921C100.55,51.889 72.007,35.307 72.007,35.307C69.676,33.953 66.739,34.251 64.727,36.045L50.784,48.483C48.215,50.774 47.99,54.714 50.282,57.283C52.574,59.852 56.514,60.078 59.083,57.785L69.654,48.356L78.392,53.431L62.967,70.999C56.57,72.042 50.815,74.99 46.297,79.239L54.353,87.295C57.994,83.984 62.829,81.963 68.127,81.963C79.428,81.963 88.622,91.157 88.622,102.458C88.622,107.756 86.601,112.59 83.29,116.232L91.345,124.287C96.711,118.583 100.004,110.907 100.004,102.458C100.004,97.423 98.835,92.663 96.757,88.429L105.17,87.961L103.123,113.063C102.843,116.494 105.399,119.502 108.83,119.782C109.001,119.796 109.173,119.802 109.343,119.802C112.555,119.802 115.283,117.334 115.548,114.075L118.175,81.847C118.322,80.051 117.684,78.28 116.427,76.99Z" style="fill:rgb(132,14,255);fill-rule:nonzero;"/>
            <path d="M104.882,50.289C110.645,50.289 115.315,45.618 115.315,39.855C115.315,34.093 110.645,29.421 104.882,29.421C99.119,29.421 94.448,34.093 94.448,39.855C94.448,45.618 99.119,50.289 104.882,50.289Z" style="fill:rgb(132,14,255);fill-rule:nonzero;"/>
            <path d="M68.127,122.952C56.826,122.952 47.632,113.758 47.632,102.458C47.632,98.199 48.939,94.24 51.171,90.959L43.029,82.817C38.786,88.231 36.25,95.046 36.25,102.458C36.25,120.063 50.522,134.335 68.127,134.335C75.539,134.335 82.354,131.798 87.768,127.555L79.625,119.414C76.345,121.645 72.386,122.952 68.127,122.952Z" style="fill:rgb(132,14,255);fill-rule:nonzero;"/>
        </g>
        <g transform="matrix(1,0,0,1,-148.32,0)">
            <path d="M80.902,1.083C97.634,1.123 114.352,6.534 127.908,16.421C145.898,29.542 158.047,50.246 160.401,72.718C162.558,93.311 156.465,114.617 143.462,130.961C131.753,145.679 114.777,156.049 96.414,159.687C76.674,163.596 55.508,159.775 38.429,149.114C21.892,138.79 9.336,122.302 3.882,103.539C-2.6,81.241 1.138,56.241 14.116,36.779C25.773,19.299 44.474,6.67 65.255,2.587C70.412,1.574 75.679,1.079 80.902,1.083ZM80.663,12.947C66.37,12.981 52.139,17.612 40.63,26.006C27.19,35.809 17.507,50.579 14.043,66.982C9.913,86.542 14.821,107.802 27.369,123.574C37.303,136.061 51.756,144.943 67.438,148.049C84.25,151.379 102.292,148.128 116.835,139.05C133.629,128.565 145.531,110.581 148.314,90.695C150.593,74.413 146.817,57.332 137.674,43.533C125.422,25.04 103.962,13.11 81.215,12.948C81.031,12.947 80.847,12.947 80.663,12.947Z" style="fill:rgb(132,14,255);fill-rule:nonzero;"/>
        </g>
        <g transform="matrix(0.999999,0,0,0.999999,-140.32,6.95999)">
            <path d="M25.734,94.584C26.502,97.812 29.039,100.579 33.343,100.579C37.109,100.579 40.03,98.119 40.952,94.968L49.868,65.3L50.021,65.3L58.937,94.968C59.859,98.119 62.78,100.579 66.546,100.579C70.85,100.579 73.387,97.812 74.155,94.584L83.916,52.619C84.147,51.619 84.224,51.081 84.224,50.005C84.224,47.546 82.149,44.933 78.767,44.933C75.077,44.933 73.31,47.085 72.618,50.466L66.085,83.132L65.931,83.132L55.939,49.467C55.094,46.7 52.788,44.933 49.944,44.933C47.101,44.933 44.795,46.7 43.949,49.467L33.958,83.132L33.804,83.132L27.271,50.466C26.579,47.085 24.811,44.933 21.122,44.933C17.74,44.933 15.665,47.546 15.665,50.005C15.665,51.081 15.742,51.619 15.973,52.619L25.734,94.584Z" style="fill:rgb(132,14,255);fill-rule:nonzero;"/>
        </g>
        <g transform="matrix(0.999999,0,0,0.999999,-140.32,6.95999)">
            <path d="M86.145,72.756C86.145,88.666 96.982,101.04 112.584,101.04C118.272,101.04 129.878,99.349 129.878,91.971C129.878,90.203 128.264,86.744 124.805,86.744C121.654,86.744 119.04,89.972 112.584,89.972C103.131,89.972 98.135,82.133 98.135,72.986C98.135,63.609 103.054,55.539 112.584,55.539C119.04,55.539 121.193,58.229 124.344,58.229C127.188,58.229 129.109,55.847 129.109,53.08C129.109,46.316 118.195,44.471 112.584,44.471C96.905,44.471 86.145,56.769 86.145,72.756Z" style="fill:rgb(132,14,255);fill-rule:nonzero;"/>
        </g>
    </g>
</svg>
