<?xml version="1.0" encoding="UTF-8" standalone="no"?>
<!DOCTYPE svg PUBLIC "-//W3C//DTD SVG 1.1//EN" "http://www.w3.org/Graphics/SVG/1.1/DTD/svg11.dtd">
<svg width="100%" height="100%" viewBox="0 0 675 675" version="1.1" xmlns="http://www.w3.org/2000/svg" xmlns:xlink="http://www.w3.org/1999/xlink" xml:space="preserve" style="fill-rule:evenodd;clip-rule:evenodd;stroke-linejoin:round;stroke-miterlimit:2;">
    <metadata>
      <rdf:RDF xmlns:rdf="http://www.w3.org/1999/02/22-rdf-syntax-ns#"
               xmlns:rdfs="http://www.w3.org/2000/01/rdf-schema#"
               xmlns:dc="http://purl.org/dc/elements/1.1/">
        <rdf:Description about="https://github.com/cusyio/cusy-design-system/blob/main/docs/accessibility/toilet-inv.svg">
          <dc:title>Toilet usable with wheelchair</dc:title>
          <dc:creator>Veit Schiele, Berlin</dc:creator>
          <dc:publisher>cusy GmbH</dc:publisher>
          <dc:subject>Accessibility, Toilet, Wheelchair</dc:subject>
          <dc:description>Toilet usable with wheelchair.</dc:description>
          <dc:identifier>https://github.com/cusyio/cusy-design-system/blob/main/docs/accessibility/toilet-inv.svg</dc:identifier>
          <dc:relation>https://cusy-design-system.readthedocs.io/de/latest/accessibility/events.html</dc:relation>
          <dc:source>https://github.com/cusyio/cusy-design-system/blob/main/docs/accessibility/toilet-inv.svg</dc:source>
          <dc:rights>Copyright 2021 cusy GmbH</dc:rights>
          <dc:format>image/svg+xml</dc:format>
          <dc:type>Image</dc:type>
          <dc:date>2021-07-13</dc:date>
          <dc:language>en</dc:language>
        </rdf:Description>
      </rdf:RDF>
    </metadata>
    <g transform="matrix(4.16667,0,0,4.16667,0,0)">
        <path d="M81,4.624C123.153,4.624 157.376,38.847 157.376,81C157.376,123.153 123.153,157.376 81,157.376C38.847,157.376 4.624,123.153 4.624,81C4.624,38.847 38.847,4.624 81,4.624Z" style="fill:rgb(132,24,255);"/>
        <path d="M80.973,1.083C97.705,1.123 114.423,6.534 127.979,16.421C145.969,29.542 158.118,50.246 160.472,72.718C162.629,93.311 156.536,114.617 143.533,130.961C131.823,145.679 114.848,156.049 96.485,159.687C76.745,163.596 55.579,159.775 38.5,149.114C21.963,138.79 9.407,122.302 3.952,103.539C-2.529,81.241 1.209,56.241 14.187,36.779C25.844,19.299 44.544,6.67 65.326,2.587C70.482,1.574 75.749,1.079 80.973,1.083ZM80.733,12.947C66.441,12.981 52.21,17.612 40.701,26.006C27.261,35.809 17.578,50.579 14.114,66.982C9.984,86.542 14.892,107.802 27.44,123.574C37.374,136.061 51.827,144.943 67.509,148.049C84.32,151.379 102.363,148.128 116.906,139.05C133.7,128.565 145.602,110.581 148.385,90.695C150.664,74.413 146.888,57.332 137.745,43.533C125.493,25.04 104.033,13.11 81.286,12.948C81.102,12.947 80.918,12.947 80.733,12.947Z" style="fill:white;fill-rule:nonzero;"/>
        <path d="M64.247,108.374C66.831,105.136 67.981,101.458 67.613,97.349C67.291,93.758 65.833,90.655 63.287,88.1C60.547,85.35 57.218,83.852 53.336,83.647C49.472,83.444 46.033,84.604 42.985,87.004C42.908,86.944 42.836,86.899 42.777,86.841C40.988,85.046 39.2,83.25 37.412,81.454C37.362,81.403 37.318,81.345 37.273,81.292C37.973,80.543 40.295,78.971 42.074,78.113C43.815,77.274 45.629,76.649 47.535,76.235C47.556,76.141 47.58,76.061 47.591,75.978C47.704,75.074 47.815,74.169 47.926,73.264C48.058,72.186 48.19,71.109 48.321,70.031C48.421,69.212 48.519,68.393 48.619,67.574C48.751,66.482 48.885,65.39 49.018,64.298C49.085,63.752 49.153,63.207 49.217,62.66C49.227,62.575 49.218,62.488 49.218,62.378C49.15,62.367 49.082,62.343 49.017,62.347C47.847,62.43 46.677,62.516 45.508,62.6C44.93,62.642 44.353,62.684 43.775,62.725C43.241,62.763 42.706,62.798 42.172,62.839C42.029,62.85 41.887,62.876 41.719,62.898C41.677,63.038 41.63,63.172 41.596,63.309C40.807,66.497 40.018,69.686 39.229,72.874C39.177,73.084 39.13,73.298 39.057,73.501C38.423,75.262 37.18,76.314 35.34,76.64C33.156,77.027 30.56,75.642 30.05,72.802C29.931,72.141 29.985,71.476 30.148,70.82C30.961,67.549 31.769,64.276 32.58,61.003C32.858,59.88 33.139,58.757 33.415,57.633C33.529,57.167 33.663,56.709 33.9,56.29C34.713,54.853 35.936,54.02 37.584,53.862C38.737,53.751 39.894,53.686 41.049,53.599C42.016,53.526 42.983,53.449 43.95,53.377C44.903,53.307 45.857,53.243 46.81,53.173C47.82,53.099 48.83,53.02 49.841,52.946C50.765,52.877 51.689,52.812 52.613,52.744C53.667,52.667 54.721,52.587 55.775,52.51C56.685,52.443 57.595,52.378 58.504,52.311C59.573,52.233 60.641,52.155 61.709,52.074C62.405,52.02 63.101,51.989 63.775,52.214C64.103,52.323 64.44,52.434 64.735,52.609C66.109,53.425 67.077,54.568 67.495,56.139C67.688,56.865 67.698,57.599 67.611,58.337C67.449,59.717 67.278,61.096 67.109,62.475C66.949,63.782 66.785,65.089 66.626,66.397C66.495,67.474 66.374,68.553 66.239,69.63C66.125,70.535 65.995,71.437 65.875,72.341C65.741,73.345 65.611,74.35 65.477,75.354C65.313,76.588 65.146,77.821 64.981,79.055C64.97,79.139 64.97,79.225 64.963,79.327C65.277,79.539 65.584,79.755 65.903,79.953C65.98,80.001 66.095,80.01 66.191,80.005C67.926,79.907 69.66,79.802 71.395,79.704C72.681,79.631 73.968,79.569 75.255,79.498C76.571,79.425 77.886,79.348 79.201,79.274C79.808,79.24 80.416,79.206 81.023,79.172C82.541,79.089 84.058,78.997 85.577,78.924C87.477,78.833 89.738,79.943 90.357,82.375C90.397,82.529 90.439,82.683 90.486,82.835C90.683,83.483 90.706,84.145 90.634,84.813C90.526,85.821 90.419,86.828 90.309,87.835C90.177,89.044 90.041,90.252 89.911,91.461C89.81,92.397 89.716,93.333 89.615,94.268C89.484,95.477 89.348,96.685 89.218,97.894C89.117,98.829 89.022,99.766 88.922,100.701C88.821,101.636 88.716,102.571 88.615,103.507C88.515,104.428 88.421,105.349 88.319,106.27C88.209,107.263 88.113,108.258 87.972,109.245C87.721,111.003 86.237,112.627 84.251,113.036C81.947,113.511 79.204,111.967 78.714,109.218C78.612,108.643 78.653,108.063 78.714,107.485C78.821,106.478 78.931,105.471 79.041,104.464C79.173,103.255 79.307,102.047 79.438,100.838C79.539,99.903 79.634,98.967 79.735,98.031C79.835,97.096 79.94,96.161 80.042,95.225C80.14,94.319 80.236,93.412 80.333,92.505C80.439,91.527 80.546,90.548 80.65,89.57C80.681,89.283 80.704,88.995 80.729,88.728C80.644,88.599 80.534,88.633 80.439,88.638C79.962,88.661 79.485,88.69 79.008,88.716C77.374,88.806 75.74,88.895 74.107,88.987C73.981,88.994 73.844,88.972 73.715,89.09C73.864,89.532 74.102,89.946 74.265,90.39C74.43,90.838 74.612,91.28 74.766,91.731C74.921,92.183 75.061,92.64 75.187,93.1C75.314,93.561 75.426,94.025 75.524,94.492C75.622,94.959 75.705,95.43 75.773,95.903C75.841,96.375 75.894,96.851 75.932,97.327C75.971,97.803 75.995,98.28 76.006,98.758C76.017,99.235 76.014,99.714 75.997,100.191C75.98,100.668 75.949,101.145 75.905,101.621C75.861,102.081 75.804,102.541 75.732,102.998C75.658,103.47 75.571,103.94 75.469,104.406C75.367,104.872 75.251,105.336 75.121,105.795C74.991,106.254 74.847,106.71 74.689,107.16C74.531,107.61 74.359,108.057 74.173,108.496C73.988,108.935 73.788,109.37 73.577,109.798C73.365,110.226 73.141,110.648 72.903,111.063C72.666,111.477 72.415,111.884 72.153,112.284C71.891,112.682 71.613,113.072 71.331,113.457C71.05,113.839 70.76,114.217 70.43,114.557C70.147,114.354 64.715,108.922 64.248,108.374L64.247,108.374Z" style="fill:white;"/>
        <path d="M61.598,110.948C61.642,110.982 61.702,111.02 61.751,111.069C63.774,113.098 65.795,115.128 67.814,117.157C66.924,118.285 63.189,120.529 60.665,121.46C56.46,123.01 52.152,123.355 47.762,122.479C43.459,121.621 39.675,119.697 36.454,116.717C26.382,107.397 26.791,92.562 34.62,83.883C34.635,83.882 34.65,83.878 34.663,83.881C34.676,83.885 34.69,83.894 34.7,83.903C36.541,85.748 38.382,87.593 40.222,89.438C40.283,89.499 40.339,89.565 40.418,89.651C40.349,89.76 40.286,89.87 40.213,89.972C39.127,91.499 38.348,93.168 37.88,94.982C37.495,96.479 37.318,98.003 37.425,99.544C37.77,104.506 39.985,108.434 44.06,111.287C45.826,112.523 47.797,113.306 49.929,113.661C54.053,114.347 57.836,113.494 61.277,111.122C61.348,111.073 61.419,111.023 61.493,110.977C61.516,110.962 61.547,110.961 61.598,110.948Z" style="fill:white;"/>
        <path d="M52.235,42.695C52.248,38.233 55.916,34.875 60.083,34.918C64.455,34.963 67.858,38.54 67.816,42.768C67.772,47.221 64.114,50.52 60.01,50.502C55.673,50.484 52.211,46.949 52.235,42.695Z" style="fill:white;"/>
        <g transform="matrix(0.467521,0,0,0.467521,67.2529,13.8444)">
            <path d="M25.734,94.584C26.502,97.812 29.039,100.579 33.343,100.579C37.109,100.579 40.03,98.119 40.952,94.968L49.868,65.3L50.021,65.3L58.937,94.968C59.859,98.119 62.78,100.579 66.546,100.579C70.85,100.579 73.387,97.812 74.155,94.584L83.916,52.619C84.147,51.619 84.224,51.081 84.224,50.005C84.224,47.546 82.149,44.933 78.767,44.933C75.077,44.933 73.31,47.085 72.618,50.466L66.085,83.132L65.931,83.132L55.939,49.467C55.094,46.7 52.788,44.933 49.944,44.933C47.101,44.933 44.795,46.7 43.949,49.467L33.958,83.132L33.804,83.132L27.271,50.466C26.579,47.085 24.811,44.933 21.122,44.933C17.74,44.933 15.665,47.546 15.665,50.005C15.665,51.081 15.742,51.619 15.973,52.619L25.734,94.584Z" style="fill:white;fill-rule:nonzero;"/>
        </g>
        <g transform="matrix(0.467521,0,0,0.467521,67.2529,13.8444)">
            <path d="M86.145,72.756C86.145,88.666 96.982,101.04 112.584,101.04C118.272,101.04 129.878,99.349 129.878,91.971C129.878,90.203 128.264,86.744 124.805,86.744C121.654,86.744 119.04,89.972 112.584,89.972C103.131,89.972 98.135,82.133 98.135,72.986C98.135,63.609 103.054,55.539 112.584,55.539C119.04,55.539 121.193,58.229 124.344,58.229C127.188,58.229 129.109,55.847 129.109,53.08C129.109,46.316 118.195,44.471 112.584,44.471C96.905,44.471 86.145,56.769 86.145,72.756Z" style="fill:white;fill-rule:nonzero;"/>
        </g>
    </g>
</svg>
