<?xml version="1.0" encoding="UTF-8" standalone="no"?>
<!DOCTYPE svg PUBLIC "-//W3C//DTD SVG 1.1//EN" "http://www.w3.org/Graphics/SVG/1.1/DTD/svg11.dtd">
<svg width="100%" height="100%" viewBox="0 0 675 675" version="1.1" xmlns="http://www.w3.org/2000/svg" xmlns:xlink="http://www.w3.org/1999/xlink" xml:space="preserve" style="fill-rule:evenodd;clip-rule:evenodd;stroke-linejoin:round;stroke-miterlimit:2;">
    <metadata>
      <rdf:RDF xmlns:rdf="http://www.w3.org/1999/02/22-rdf-syntax-ns#"
               xmlns:rdfs="http://www.w3.org/2000/01/rdf-schema#"
               xmlns:dc="http://purl.org/dc/elements/1.1/">
        <rdf:Description about="https://github.com/cusyio/cusy-design-system/blob/main/docs/accessibility/visual.svg">
          <dc:title>Accessible for blind and visually impaired people</dc:title>
          <dc:creator>Veit Schiele, Berlin</dc:creator>
          <dc:publisher>cusy GmbH</dc:publisher>
          <dc:subject>Accessibility, Blind, Visually impaired</dc:subject>
          <dc:description>Accessible for blind and visually impaired people.</dc:description>
          <dc:identifier>https://github.com/cusyio/cusy-design-system/blob/main/docs/accessibility/visual.svg</dc:identifier>
          <dc:relation>https://cusy.design/de/latest/accessibility/events.html</dc:relation>
          <dc:source>https://github.com/cusyio/cusy-design-system/blob/main/docs/accessibility/visual.svg</dc:source>
          <dc:rights>Copyright 2021 cusy GmbH</dc:rights>
          <dc:format>image/svg+xml</dc:format>
          <dc:type>Image</dc:type>
          <dc:date>2021-07-13</dc:date>
          <dc:language>en</dc:language>
        </rdf:Description>
      </rdf:RDF>
    </metadata>
    <g transform="matrix(4.16667,0,0,4.16667,0,0)">
        <path d="M81,2.486C124.403,2.486 159.641,37.724 159.641,81.128C159.641,124.531 124.403,159.769 81,159.769C37.597,159.769 2.359,124.531 2.359,81.128C2.359,37.724 37.597,2.486 81,2.486Z" style="fill:white;"/>
        <path d="M80.973,1.086C97.799,1.126 114.607,6.609 128.173,16.566C146.057,29.691 158.131,50.373 160.472,72.721C162.206,89.278 158.705,106.288 150.42,120.8C141.551,136.333 127.306,148.798 110.658,155.482C91.74,163.075 69.894,163.053 51.031,155.482C28.623,146.486 10.764,126.971 3.952,103.542C-2.521,81.274 1.165,56.31 14.187,36.782C25.882,19.246 44.611,6.592 65.571,2.542C70.563,1.578 75.656,1.098 80.715,1.086L80.973,1.086ZM80.733,12.95C66.419,12.984 52.21,17.615 40.701,26.009C23.448,38.592 12.608,59.411 12.642,81.263C12.672,100.088 20.847,118.709 34.837,131.5C47.183,142.788 63.83,149.3 80.623,149.354C97.303,149.407 113.947,143.092 126.397,131.912C140.599,119.158 149.047,100.381 149.047,81.152C149.047,64.529 142.734,47.991 131.605,35.6C118.998,21.562 100.427,13.088 81.286,12.951C81.102,12.95 80.918,12.95 80.733,12.95Z" style="fill:rgb(132,14,255);fill-rule:nonzero;"/>
        <path d="M80.61,78.804C78.647,77.15 75.579,77.273 73.755,79.08C65.702,87.06 45.121,107.454 37.068,115.434C35.245,117.24 35.358,120.046 37.32,121.701C37.323,121.703 37.325,121.705 37.327,121.707C39.289,123.361 42.359,123.238 44.182,121.431C52.235,113.451 72.816,93.058 80.869,85.077C82.692,83.271 82.579,80.465 80.617,78.81C80.615,78.808 80.612,78.807 80.61,78.804Z" style="fill:rgb(132,14,255);"/>
        <path d="M121.138,39.552C119.175,37.898 115.913,38.213 113.851,40.256C112.576,41.52 111.15,42.934 109.874,44.198C107.812,46.241 107.731,49.238 109.694,50.893C109.696,50.895 109.698,50.897 109.701,50.899C111.663,52.553 114.925,52.238 116.987,50.195C118.263,48.931 119.689,47.518 120.965,46.254C123.027,44.211 123.108,41.213 121.145,39.558C121.143,39.556 121.14,39.554 121.138,39.552Z" style="fill:rgb(132,14,255);"/>
        <path d="M91.753,88.656C90.491,87.446 90.151,85.561 90.91,83.986C91.736,82.277 92.129,80.383 92.042,78.438C91.755,72.039 86.315,67.067 79.916,67.354C77.931,67.442 76.042,68.026 74.39,69.039C72.855,69.98 70.882,69.791 69.553,68.576C69.547,68.57 69.541,68.565 69.535,68.56C68.601,67.705 68.121,66.462 68.24,65.201C68.359,63.94 69.062,62.808 70.139,62.143C72.952,60.412 76.169,59.415 79.554,59.263C90.413,58.776 99.644,67.215 100.132,78.075C100.28,81.39 99.607,84.619 98.196,87.528C97.63,88.687 96.545,89.507 95.275,89.733C94.005,89.96 92.703,89.566 91.772,88.673C91.765,88.668 91.759,88.662 91.753,88.656Z" style="fill:rgb(132,14,255);fill-rule:nonzero;"/>
        <path d="M76.08,102.13C76.892,101.252 78.051,100.778 79.245,100.837C79.954,100.874 80.664,100.891 81.373,100.891C91.796,100.891 101.048,97.449 108.872,90.661C113.102,86.99 116.018,83.127 117.845,80.261C118.679,78.948 118.686,77.273 117.861,75.954C116.06,73.081 113.175,69.215 108.965,65.556C101.193,58.802 91.91,55.378 81.373,55.378C71.165,55.378 61.997,58.813 54.122,65.587C49.881,69.235 46.904,73.083 45.016,75.955C44.137,77.293 44.132,79.024 45.003,80.367C46.205,82.221 47.869,84.496 50.046,86.863C50.763,87.647 51.138,88.684 51.088,89.745C51.038,90.805 50.567,91.802 49.779,92.515C49.78,92.515 49.779,92.515 49.779,92.515C48.159,93.981 45.66,93.87 44.176,92.266C38.186,85.779 35.432,79.904 35.4,79.835L35.399,79.833C34.9,78.756 34.9,77.513 35.399,76.436C35.4,76.433 35.401,76.431 35.401,76.431C35.536,76.14 49.272,47.28 81.373,47.28C114.092,47.28 127.243,76.204 127.373,76.496C127.373,76.496 127.373,76.497 127.374,76.499C127.835,77.541 127.835,78.728 127.374,79.77C127.374,79.773 127.372,79.774 127.372,79.774C127.243,80.066 114.089,108.989 81.373,108.989C80.519,108.989 79.667,108.968 78.817,108.925C77.253,108.844 75.877,107.865 75.287,106.415C74.696,104.964 74.998,103.302 76.061,102.152C76.067,102.145 76.073,102.138 76.08,102.13Z" style="fill:rgb(132,14,255);fill-rule:nonzero;"/>
    </g>
</svg>
