<?xml version="1.0" encoding="UTF-8" standalone="no"?>
<!DOCTYPE svg PUBLIC "-//W3C//DTD SVG 1.1//EN" "http://www.w3.org/Graphics/SVG/1.1/DTD/svg11.dtd">
<svg width="100%" height="100%" viewBox="0 0 675 675" version="1.1" xmlns="http://www.w3.org/2000/svg" xmlns:xlink="http://www.w3.org/1999/xlink" xml:space="preserve" style="fill-rule:evenodd;clip-rule:evenodd;stroke-linejoin:round;stroke-miterlimit:2;">
    <metadata>
      <rdf:RDF xmlns:rdf="http://www.w3.org/1999/02/22-rdf-syntax-ns#"
               xmlns:rdfs="http://www.w3.org/2000/01/rdf-schema#"
               xmlns:dc="http://purl.org/dc/elements/1.1/">
        <rdf:Description about="https://github.com/cusyio/cusy-design-system/blob/main/docs/accessibility/wheelchair-inv.svg">
          <dc:title>Wheelchair</dc:title>
          <dc:creator>Veit Schiele, Berlin</dc:creator>
          <dc:publisher>Cusy GmbH</dc:publisher>
          <dc:subject>Wheelchair, Walking difficulties</dc:subject>
          <dc:description>Accessible for people with walking difficulties or who rely on a wheelchair.</dc:description>
          <dc:identifier>https://github.com/cusyio/cusy-design-system/blob/main/docs/accessibility/wheelchair-inv.svg</dc:identifier>
          <dc:relation>https://cusy-design-system.readthedocs.io/de/latest/accessibility/events.html</dc:relation>
          <dc:source>https://github.com/cusyio/cusy-design-system/blob/main/docs/accessibility/wheelchair-inv.svg</dc:source>
          <dc:rights>Copyright 2021 Cusy GmbH</dc:rights>
          <dc:format>image/svg+xml</dc:format>
          <dc:type>Image</dc:type>
          <dc:date>2021-07-13</dc:date>
          <dc:language>en</dc:language>
        </rdf:Description>
      </rdf:RDF>
    </metadata>

    <g transform="matrix(4.16667,0,0,4.16667,0,0)">
        <path d="M80.929,4.624C123.082,4.624 157.306,38.847 157.306,81C157.306,123.153 123.082,157.376 80.929,157.376C38.776,157.376 4.553,123.153 4.553,81C4.553,38.847 38.776,4.624 80.929,4.624Z" style="fill:rgb(132,14,255);"/>
        <path d="M80.902,1.083C97.634,1.123 114.352,6.534 127.908,16.421C145.898,29.542 158.047,50.246 160.401,72.718C162.558,93.311 156.465,114.617 143.462,130.961C131.753,145.679 114.777,156.049 96.414,159.687C76.674,163.596 55.508,159.775 38.429,149.114C21.892,138.79 9.336,122.302 3.882,103.539C-2.6,81.241 1.138,56.241 14.116,36.779C25.773,19.299 44.474,6.67 65.255,2.587C70.412,1.574 75.679,1.079 80.902,1.083ZM80.663,12.947C66.37,12.981 52.139,17.612 40.63,26.006C27.19,35.809 17.507,50.579 14.043,66.982C9.913,86.542 14.821,107.802 27.369,123.574C37.303,136.061 51.756,144.943 67.438,148.049C84.25,151.379 102.292,148.128 116.835,139.05C133.629,128.565 145.531,110.581 148.314,90.695C150.593,74.413 146.817,57.332 137.674,43.533C125.422,25.04 103.962,13.11 81.215,12.948C81.031,12.947 80.847,12.947 80.663,12.947Z" style="fill:white;fill-rule:nonzero;"/>
        <g>
            <path d="M116.427,76.99C115.169,75.7 113.412,75.018 111.617,75.117L89.884,76.326L101.844,62.705C103.548,60.765 104.034,58.178 103.376,55.867C103.028,54.283 102.069,52.842 100.596,51.921C100.55,51.889 72.007,35.307 72.007,35.307C69.676,33.953 66.739,34.251 64.727,36.045L50.784,48.483C48.215,50.774 47.99,54.714 50.282,57.283C52.574,59.852 56.514,60.078 59.083,57.785L69.654,48.356L78.392,53.431L62.967,70.999C56.57,72.042 50.815,74.99 46.297,79.239L54.353,87.295C57.994,83.984 62.829,81.963 68.127,81.963C79.428,81.963 88.622,91.157 88.622,102.458C88.622,107.756 86.601,112.59 83.29,116.232L91.345,124.287C96.711,118.583 100.004,110.907 100.004,102.458C100.004,97.423 98.835,92.663 96.757,88.429L105.17,87.961L103.123,113.063C102.843,116.494 105.399,119.502 108.83,119.782C109.001,119.796 109.173,119.802 109.343,119.802C112.555,119.802 115.283,117.334 115.548,114.075L118.175,81.847C118.322,80.051 117.684,78.28 116.427,76.99Z" style="fill:white;fill-rule:nonzero;"/>
            <path d="M104.882,50.289C110.645,50.289 115.315,45.618 115.315,39.855C115.315,34.093 110.645,29.421 104.882,29.421C99.119,29.421 94.448,34.093 94.448,39.855C94.448,45.618 99.119,50.289 104.882,50.289Z" style="fill:white;fill-rule:nonzero;"/>
            <path d="M68.127,122.952C56.826,122.952 47.632,113.758 47.632,102.458C47.632,98.199 48.939,94.24 51.171,90.959L43.029,82.817C38.786,88.231 36.25,95.046 36.25,102.458C36.25,120.063 50.522,134.335 68.127,134.335C75.539,134.335 82.354,131.798 87.768,127.555L79.625,119.414C76.345,121.645 72.386,122.952 68.127,122.952Z" style="fill:white;fill-rule:nonzero;"/>
        </g>
    </g>
</svg>
