<svg width="100%" height="100%" viewBox="0 0 1500 180" version="1.1" xmlns="http://www.w3.org/2000/svg" xmlns:xlink="http://www.w3.org/1999/xlink" xml:space="preserve" xmlns:serif="http://www.serif.com/" style="fill-rule:evenodd;clip-rule:evenodd;stroke-linecap:round;stroke-linejoin:round;stroke-miterlimit:1;">
    <g transform="matrix(1,0,0,1,-30.9692,-30)">
        <g transform="matrix(6.47523,0,0,6.47523,-3966.25,-1580.53)">
            <rect x="773.369" y="256.531" width="12.193" height="12.193" style="fill:#bd0f77;"/>
        </g>
        <g transform="matrix(-0.156423,-1.91563e-17,1.91563e-17,-0.156423,674.959,564.56)">
            <path d="M1240.16,2509.84L856.583,3174.21L1623.73,3174.21L1240.16,2509.84Z" style="fill:#cd8402;"/>
        </g>
        <g transform="matrix(3.56707,0,0,3.56707,-202.057,-847.75)">
            <circle cx="107.378" cy="271.301" r="12.488" style="fill:#753bbd;"/>
        </g>
        <g transform="matrix(1.2975,0,0,1.2975,-300.364,-549.954)">
            <path d="M949.006,463.743L984.206,516.343L949.006,568.943L913.806,516.343L949.006,463.743Z" style="fill:#129fd4;"/>
        </g>
        <g transform="matrix(1.50081,0,0,1.50081,43.5027,-731.266)">
            <path d="M508.015,533.931L524.651,550.567L508.015,567.204L524.651,583.84L508.015,600.476L491.379,583.84L474.742,600.476L458.106,583.84L474.742,567.204L458.106,550.567L474.742,533.931L491.379,550.567L508.015,533.931Z" style="fill:#de2817;"/>
        </g>
        <g transform="matrix(0.979687,0,0,0.979687,937.063,-978.826)">
            <path d="M275,1128.87L250,1114.43L250,1085.57L275,1071.13L300,1085.57L325,1071.13L350,1085.57L350,1114.43L325,1128.87L325,1157.74L300,1172.17L275,1157.74L275,1128.87Z" style="fill:#4ca72b;"/>
        </g>
        <g transform="matrix(1,0,0,1,3.73759,0)">
            <g transform="matrix(0.78398,0.78398,-0.78398,0.78398,305.483,-506.727)">
                <rect x="385.072" y="357.331" width="41.115" height="41.115" style="fill:#008578;"/>
            </g>
            <g transform="matrix(0.78398,0.78398,-0.78398,0.78398,337.717,-474.494)">
                <rect x="385.072" y="357.331" width="41.115" height="41.115" style="fill:#008578;"/>
            </g>
            <g transform="matrix(0.78398,0.78398,-0.78398,0.78398,273.25,-474.494)">
                <rect x="385.072" y="357.331" width="41.115" height="41.115" style="fill:#008578;"/>
            </g>
        </g>
        <g transform="matrix(0.581549,0,2.77556e-17,0.581549,630.969,125.986)">
            <path d="M81.17,0C81.17,-44.829 44.829,-81.17 -0,-81.17C-40.754,-81.17 -73.791,-48.133 -73.791,-7.379C-73.791,28.846 -44.424,58.213 -8.199,58.213C23.498,58.213 49.194,32.517 49.194,0.82C49.194,-26.349 27.169,-48.374 -0,-48.374C-22.641,-48.374 -40.995,-30.02 -40.995,-7.379C-40.995,10.734 -26.312,25.417 -8.199,25.417C5.386,25.417 16.398,14.404 16.398,0.82C16.398,-8.236 9.056,-15.578 -0,-15.578C-4.528,-15.578 -8.199,-11.907 -8.199,-7.379" style="fill:none;stroke:#0663b5;stroke-width:21.36px;"/>
        </g>
    </g>
    <g transform="matrix(1.1,0,0,0.908654,-135.302,-27.3029)">
        <path d="M1389.75,107.65L1389.75,127.398L1310.8,127.398L1310.8,107.65L1389.75,107.65ZM1389.75,84.416L1389.75,104.165L1310.8,104.165L1310.8,84.416L1389.75,84.416ZM1389.75,130.883L1389.75,150.632L1310.8,150.632L1310.8,130.883L1389.75,130.883ZM1389.75,154.117L1389.75,173.865L1310.8,173.865L1310.8,154.117L1389.75,154.117Z" style="fill:#757575;"/>
    </g>
</svg>
