<svg xmlns="http://www.w3.org/2000/svg" viewBox="0 0 75.1 95.83324725" xml:space="preserve" xmlns:serif="http://www.serif.com/" style="fill-rule:evenodd;clip-rule:evenodd;stroke-linecap:round;stroke-linejoin:round;stroke-miterlimit:1;">
  <defs>
    <pattern id="gen-spiralpattern" x="0" y="0" width="37.55" height="191.6664945" patternUnits="userSpaceOnUse" patternTransform="scale(0.25)">
      <path class="resize" stroke-width="6.21px" d="M39.513,-11.7C31.632,-22.083 16.826,-24.112 6.443,-16.231C-2.996,-9.066 -4.84,4.394 2.324,13.833C8.693,22.223 20.657,23.862 29.047,17.494C36.389,11.921 37.823,1.452 32.251,-5.889C27.474,-12.182 18.501,-13.411 12.208,-8.635C6.965,-4.655 5.94,2.823 9.92,8.067C13.105,12.262 19.087,13.082 23.282,9.898C26.428,7.509 27.043,3.023 24.655,-0.124C23.063,-2.221 20.072,-2.631 17.974,-1.039C16.925,-0.243 16.72,1.253 17.516,2.302" style="fill:none;stroke:#0663b5;"/>
      <path class="resize" stroke-width="6.21px" d="M16.983,26.633C9.102,16.25 -5.704,14.222 -16.087,22.103C-25.526,29.267 -27.37,42.727 -20.206,52.166C-13.837,60.556 -1.873,62.195 6.517,55.827C13.859,50.254 15.293,39.786 9.721,32.444C4.944,26.152 -4.029,24.922 -10.322,29.699C-15.565,33.679 -16.59,41.156 -12.61,46.4C-9.425,50.596 -3.443,51.415 0.752,48.231C3.898,45.843 4.513,41.356 2.125,38.21C0.533,36.112 -2.458,35.702 -4.556,37.295C-5.605,38.091 -5.81,39.586 -5.014,40.635" style="fill:none;stroke:#0663b5;"/>
      <path class="resize" stroke-width="6.21px" d="M77.063,-11.7C69.182,-22.083 54.376,-24.112 43.993,-16.231C34.554,-9.066 32.71,4.394 39.874,13.833C46.243,22.223 58.207,23.862 66.597,17.494C73.939,11.921 75.373,1.452 69.801,-5.889C65.024,-12.182 56.051,-13.411 49.758,-8.635C44.515,-4.655 43.49,2.823 47.47,8.067C50.655,12.262 56.637,13.082 60.832,9.898C63.978,7.509 64.593,3.023 62.205,-0.124C60.613,-2.221 57.622,-2.631 55.524,-1.039C54.475,-0.243 54.27,1.253 55.066,2.302" style="fill:none;stroke:#0663b5;"/>
      <path class="resize" stroke-width="6.21px" d="M54.533,26.633C46.652,16.25 31.846,14.222 21.463,22.103C12.024,29.267 10.18,42.727 17.344,52.166C23.713,60.556 35.677,62.195 44.067,55.827C51.409,50.254 52.843,39.786 47.271,32.444C42.494,26.152 33.521,24.922 27.228,29.699C21.985,33.679 20.96,41.156 24.94,46.4C28.125,50.596 34.107,51.415 38.302,48.231C41.448,45.843 42.063,41.356 39.675,38.21C38.083,36.112 35.092,35.702 32.994,37.295C31.945,38.091 31.74,39.586 32.536,40.635" style="fill:none;stroke:#0663b5;"/>
      <path class="resize" stroke-width="6.21px" d="M32.003,64.966C24.122,54.583 9.316,52.555 -1.067,60.436C-10.506,67.6 -12.35,81.06 -5.186,90.499C1.183,98.889 13.147,100.529 21.537,94.16C28.879,88.588 30.313,78.119 24.741,70.778C19.964,64.485 10.991,63.256 4.698,68.032C-0.545,72.012 -1.57,79.49 2.41,84.734C5.595,88.929 11.577,89.748 15.772,86.564C18.918,84.176 19.533,79.689 17.145,76.543C15.553,74.445 12.562,74.036 10.464,75.628C9.415,76.424 9.21,77.919 10.006,78.968" style="fill:none;stroke:#0663b5;"/>
      <path class="resize" stroke-width="6.21px" d="M9.473,103.3C1.592,92.917 -13.214,90.888 -23.597,98.769C-33.036,105.934 -34.88,119.393 -27.716,128.832C-21.347,137.223 -9.383,138.862 -0.993,132.493C6.349,126.921 7.783,116.452 2.211,109.111C-2.566,102.818 -11.539,101.589 -17.832,106.365C-23.075,110.345 -24.1,117.823 -20.12,123.067C-16.935,127.262 -10.953,128.082 -6.758,124.897C-3.612,122.509 -2.997,118.023 -5.385,114.876C-6.977,112.779 -9.968,112.369 -12.066,113.961C-13.115,114.757 -13.32,116.253 -12.524,117.301" style="fill:none;stroke:#0663b5;"/>
      <path class="resize" stroke-width="6.21px" d="M69.553,64.966C61.672,54.583 46.866,52.555 36.483,60.436C27.044,67.6 25.2,81.06 32.364,90.499C38.733,98.889 50.697,100.529 59.087,94.16C66.429,88.588 67.863,78.119 62.291,70.778C57.514,64.485 48.541,63.256 42.248,68.032C37.005,72.012 35.98,79.49 39.96,84.734C43.145,88.929 49.127,89.748 53.322,86.564C56.468,84.176 57.083,79.689 54.695,76.543C53.103,74.445 50.112,74.036 48.014,75.628C46.965,76.424 46.76,77.919 47.556,78.968" style="fill:none;stroke:#0663b5;"/>
      <path class="resize" stroke-width="6.21px" d="M47.023,103.3C39.142,92.917 24.336,90.888 13.953,98.769C4.514,105.934 2.67,119.393 9.834,128.832C16.203,137.223 28.167,138.862 36.557,132.493C43.899,126.921 45.333,116.452 39.761,109.111C34.984,102.818 26.011,101.589 19.718,106.365C14.475,110.345 13.45,117.823 17.43,123.067C20.615,127.262 26.597,128.082 30.792,124.897C33.938,122.509 34.553,118.023 32.165,114.876C30.573,112.779 27.582,112.369 25.484,113.961C24.435,114.757 24.23,116.253 25.026,117.301" style="fill:none;stroke:#0663b5;"/>
      <path class="resize" stroke-width="6.21px" d="M24.493,141.633C16.612,131.25 1.806,129.222 -8.577,137.102C-18.016,144.267 -19.86,157.727 -12.696,167.166C-6.327,175.556 5.637,177.195 14.027,170.827C21.369,165.254 22.803,154.786 17.231,147.444C12.454,141.151 3.481,139.922 -2.812,144.698C-8.055,148.679 -9.08,156.156 -5.1,161.4C-1.915,165.595 4.067,166.415 8.262,163.231C11.408,160.843 12.023,156.356 9.635,153.21C8.043,151.112 5.052,150.702 2.954,152.294C1.905,153.09 1.7,154.586 2.496,155.635" style="fill:none;stroke:#0663b5;"/>
      <path class="resize" stroke-width="6.21px" d="M62.043,141.633C54.162,131.25 39.356,129.222 28.973,137.102C19.534,144.267 17.69,157.727 24.854,167.166C31.223,175.556 43.187,177.195 51.577,170.827C58.919,165.254 60.353,154.786 54.781,147.444C50.004,141.151 41.031,139.922 34.738,144.698C29.495,148.679 28.47,156.156 32.45,161.4C35.635,165.595 41.617,166.415 45.812,163.231C48.958,160.843 49.573,156.356 47.185,153.21C45.593,151.112 42.602,150.702 40.504,152.294C39.455,153.09 39.25,154.586 40.046,155.635" style="fill:none;stroke:#0663b5;"/>
      <path class="resize" stroke-width="6.21px" d="M39.513,179.966C31.632,169.583 16.826,167.555 6.443,175.436C-2.996,182.6 -4.84,196.06 2.324,205.499C8.693,213.889 20.657,215.528 29.047,209.16C36.389,203.588 37.823,193.119 32.251,185.777C27.474,179.485 18.501,178.255 12.208,183.032C6.965,187.012 5.94,194.49 9.92,199.734C13.105,203.929 19.087,204.748 23.282,201.564C26.428,199.176 27.043,194.689 24.655,191.543C23.063,189.445 20.072,189.036 17.974,190.628C16.925,191.424 16.72,192.919 17.516,193.968" style="fill:none;stroke:#0663b5;"/>
      <path class="resize" stroke-width="6.21px" d="M77.063,179.966C69.182,169.583 54.376,167.555 43.993,175.436C34.554,182.6 32.71,196.06 39.874,205.499C46.243,213.889 58.207,215.528 66.597,209.16C73.939,203.588 75.373,193.119 69.801,185.777C65.024,179.485 56.051,178.255 49.758,183.032C44.515,187.012 43.49,194.49 47.47,199.734C50.655,203.929 56.637,204.748 60.832,201.564C63.978,199.176 64.593,194.689 62.205,191.543C60.613,189.445 57.622,189.036 55.524,190.628C54.475,191.424 54.27,192.919 55.066,193.968" style="fill:none;stroke:#0663b5;"/>
    </pattern>
  </defs>

  <rect x="0" y="0" width="75.1" height="95.83324725" fill="url(#gen-spiralpattern)"/>
</svg>
